<svg version="1" xmlns="http://www.w3.org/2000/svg" width="546.667" height="546.667" viewBox="0 0 410.000000 410.000000"><path d="M229.5 22c.3.5.8 1 1.1 1 .2 0 .4-.5.4-1 0-.6-.5-1-1.1-1-.5 0-.7.4-.4 1zM197.9 24.7c-.5 16-.5 27.2.2 26.2 1.6-2.6 2.3.2 2.4 9.7.1 7.2-.2 9.7-1.3 10.3-1.2.7-1.1 1.3.1 4.3 1.2 2.9 1.2 4 .2 6.5-.7 1.7-1.8 3.4-2.4 3.7-.6.4-1.1 1.7-1.1 2.9 0 1.8.2 1.9 1 .7 1.3-1.9 1.3-1.2 1.1 14.5l-.1 6.5h-18.5v4.7c0 3.1.5 5.2 1.5 6 1.9 1.5.6 2.8-2.8 2.8-2.7 0-2.7-.1-3.2-8-.3-4.5-.9-7.9-1.5-7.8-.5 0-3.2.4-6 .7-2.7.2-6.9.8-9.2 1.2-4.2.6-4.3.7-4.3 4.8 0 3-.3 3.7-1 2.6-.5-.8-1-1.3-1.1-1-.6 3.1-.3 5 .8 5.4.7.3 1.3 1.5 1.3 2.6 0 1.6-.6 2-3.5 2H147v-18.5h-23.1l.2 10c.1 6.9.7 11.6 2.1 15.5 2.6 7.4 3 12.7 1 13.5-1.6.6-3.2-1-3.2-3.5 0-1-.8-.7-2.5 1.1-2.6 2.6-6.1 11.9-4.5 11.9.4 0 1.1-.6 1.4-1.3.5-1.3-.2 8.3-1 12-.2 1.3 0 2.3.6 2.3.5 0 1 1.1 1 2.5s-.4 2.5-.9 2.5-.5 1.5.1 3.5c.6 1.9 1.5 3.2 1.9 3 .4-.3.9 0 1.1.7.2.6 3.1 1.3 6.6 1.6 6.1.4 6.2.5 7.2 4.1 1.5 5.5 1.3 10.1-.5 10.1-1 0-1.5-1-1.5-3 0-1.7-.4-3-1-3-1.8 0-.9 11.3 1.3 15.5 2 3.9 3.1 14.5 1.5 14.5-.5 0-.8-1-.8-2.3 0-1.2-.7-4.5-1.4-7.2l-1.4-5-.1 9.7c-.1 7.2.2 9.8 1.2 9.8.8 0 .8.3.2.8-.6.4-.8 2-.4 3.7l.7 3 .2-3 .2-3 .9 3.5c.7 3.2 1.3 11.4 1 15-.1 1.2-.3 1.2-.9.2-.5-.7-.8 4.7-.8 12 0 8.6-.4 14.4-1.3 16.3-1 2.4-1 2.8 0 1.7 2.8-2.7 3.4-1.2 3.4 8.3 0 5.2-.3 9.5-.6 9.5s-1.2-1.2-1.9-2.7l-1.4-2.8-.4 2.9c-.2 1.6-1 3.5-1.7 4.3-1 1-1.2 2.1-.5 3.7.5 1.3.6 2.7.3 3-.4.3-.2.6.4.6.5 0 1.1 2.6 1.2 5.7.1 3.1.7 6.5 1.2 7.5 1.3 2.5 1 28.5-.5 38-.7 4.2-1.8 8.3-2.4 9.1-1 1.1-.9 1.7.3 2.7.8.7 1.5 1.8 1.4 2.4-.1.6-.1 3.2 0 5.8l.1 4.8h141.7l-.3-11.3c-.6-30.2-1.5-71.6-1.9-83.7-.7-24.6-1.8-74.3-1.9-90l-.1-15.5H284l.1-3.5c.1-1.9 0-4.3-.1-5.4-.1-1 .3-3 .8-4.5 1.1-2.7 2.1-16 2.2-26.9 0-5.5.3-6.5 2-6.9 1.8-.5 2-1.4 2-10.9V110h-11.5c-8.8 0-11.5-.3-11.5-1.3 0-1.7-19-1.5-23.3.2-1.6.6-3.8 1.1-5 1.1-2 0-2.2.5-2.1 4.6.1 2.6-.4 5.1-1.2 5.9-.8.7-1.4 1.9-1.4 2.5 0 .6-.4.8-1 .5-.5-.3-1-3.9-1-8 0-4.9-.4-7.4-1.2-7.7-.7-.2-5.9-.4-11.5-.4-5.7.1-10.3 0-10.3-.2 0-.1.6-1.8 1.4-3.6 1.4-3.4 1.1-10.6-.5-13.8-.5-.9-.9-3-.9-4.6 0-1.6-.5-4.4-1.2-6.2-.9-2.6-.9-3.5 0-3.8.8-.2 1.2-4 1.2-11.9 0-9.8.2-11.4 1.5-10.9.8.3 1.5.1 1.5-.3 0-.5-.7-1.1-1.5-1.5-2.1-.8-1.9-2.8.3-2.2 2 .6 8.6 1.3 20.2 2.1 10.2.8 14.4 2.8 14.8 7 .2 2.2 1.3 3.7 3.8 5.3 2 1.3 3.8 2.1 4.2 1.8.3-.3 0-.6-.6-.6-.7 0-1.2-.7-1.2-1.7 0-1.2.6-1 2.3 1 1.2 1.5 2.7 2.7 3.3 2.7.6 0 3 .9 5.3 2.1 2.4 1.1 5.8 2.3 7.6 2.6 2.5.4 3.5 1.3 4.5 3.7 1.1 3 6.4 7.6 8.6 7.6.6 0 2.2 1.3 3.6 2.9 2.5 2.8 7.7 5.1 10.8 4.9 4.2-.3 7.2.4 8.9 2.1 1 1 3.4 2.2 5.2 2.6 1.9.4 6.6 2.2 10.4 4 3.9 1.8 8.3 3.8 9.8 4.4 1.5.6 2.5 1.5 2.2 2.1-.3.5.4 1.4 1.5 2 2 1.1 3-.3 1-1.5-.5-.3-1-1-1-1.5 0-.9 4.8.8 6 2 .6.6 13.7 11.7 16.4 14 2.1 1.6 2.1 1.7-.1-3.7-.7-1.7-.6-1.7 1.7-.1 2.1 1.5 6.6 3.8 16.5 8.6 1.8.9-.8-1.2-8.8-7.3-4.3-3.2-8-6.2-8.3-6.7-.5-.7 1-.6 8.6.8 1.4.2-2.2-2-7.9-5-10.3-5.4-12.3-7-18.1-15.3-3.5-4.9-13.7-10.4-23.8-12.7-7.1-1.6-9.2-2.8-15.4-8.6-2.4-2.2-4.6-4-5-4-.5 0-.8-2.2-.8-4.9 0-5.6-.8-8.4-2.1-7.5-.5.3-.7 1-.4 1.5 1 1.5-.7 1-6.3-2-3-1.5-5.3-3.1-5.2-3.6.1-.5-3-2-6.9-3.3-3.9-1.3-7.1-2.8-7.1-3.4 0-.5 1-.7 2.3-.4l2.2.6-2.2-1.1c-1.3-.7-2.3-2.1-2.3-3.4 0-4.7-6.1-7.7-17.3-8.5-5.7-.4-9.2-1.1-9.7-2-.6-.9-1.9-1.1-4.6-.5-5.8 1.1-15.3.6-17.7-.9-1.3-.8-4.5-1.2-7.7-1.1-3 .1-6.7-.4-8.2-1.2-3.8-1.8-6.8-1.7-6.9.4zm156 81.7c1.1 1.4 1.5 1.5 2.2.5.9-1.4 1-1.2 1.4 2.8.2 2.4-.9 3.1-2 1.3-.3-.6-1.4-1-2.4-1-1.4 0-4.1-3.6-4.1-5.4 0-1.2 3.7.2 4.9 1.8zM183.5 127c.4.6-.8 1-2.9 1-2 0-3.6-.5-3.6-1 0-.6 1.3-1 2.9-1 1.7 0 3.3.4 3.6 1zm19.3 2.7c-.5 2.2-2.1 2-2.3-.4-.1-1.4.3-1.9 1.2-1.6.8.3 1.3 1.2 1.1 2zm1.3 81.6c-.5.5-1.8.7-2.8.3-1.4-.6-1.5-.9-.4-1.6 1.9-1.1 4.6-.1 3.2 1.3zM201 214c0 .5 1 .6 2.3.2 2-.5 2.1-.4.8 1.1-1.2 1.5-1.1 1.7.8 1.7 1.2 0 2 .4 1.7.9-.8 1.2 2 2.2 3.9 1.5 1.3-.5 1.5 2 1.5 19 0 10.8-.3 19.6-.6 19.6-.4 0-1.7-1.1-2.9-2.4-2.4-2.5-5.5-3.3-17.2-4.3-4-.3-7.3-.9-7.3-1.4 0-.5-.7-.6-1.5-.3-.8.4-1.3 1-1 1.4.3.5 0 1.2-.6 1.6-.7.4-.9.3-.6-.2.3-.6.1-1.6-.4-2.4-.8-1.3-1-1.3-1.9 0-.5.8-1 1-1 .4 0-.7-1-1.4-2.2-1.8-1.8-.4-2-.8-1.1-1.7 1-1 .8-1.5-.5-2.5-1.6-1.2-1.6-1.3.3-1.4 1.5 0 1.7-.2.6-.9-.9-.6-1-1.1-.2-1.5.7-.5.4-1.5-1-2.9l-2-2.2 2-.3c2.1-.3 3-2.2 1.1-2.2-.5 0-1-.5-1-1.1 0-.5 4.1 2.6 9.2 7 7.5 6.4 9.6 7.8 11 7 1-.5 1.8-1.6 1.8-2.3 0-.8.6-1.9 1.4-2.5.8-.7 1.3-2 1.1-2.9-.2-.9-.4-2-.4-2.5-.1-.4-.8-.7-1.7-.7-1.3 0-1.5-.8-1.2-3.4.2-1.9.1-3.3-.3-3-1.2.7-2.7-2.1-2.6-4.8.1-1.5.8-3 1.5-3.3.7-.3 1-.9.7-1.5-.3-.6.1-1.3.9-1.6.9-.3 1.6-1.4 1.6-2.3 0-1 .9-1.7 2.5-1.7 1.4-.1 2.5.2 2.5.6z"/><path d="M208.7 222.1c.7.7 1.5 1 1.8.7.3-.3-.2-.9-1.2-1.2-1.4-.6-1.5-.5-.6.5zM277 79.9c0 .5.5 1.3 1 1.6.6.3 1 .2 1-.4 0-.5-.4-1.3-1-1.6-.5-.3-1-.2-1 .4zM114.8 141.5c-.5 2.5-.4 2.5 1 1.1 1.2-1.1 1.3-1.9.5-2.7-.7-.7-1.2-.3-1.5 1.6zM5.3 236.8c-.6 1.1-.8 2.5-.3 3.2.4.7.6 1.9.3 2.6-.2.7 0 2.1.5 3.1s1.3 3.5 1.6 5.7c.6 3 .4 3.8-.6 3.4-.8-.4-1.4.3-1.5 2 0 1.3-.5 2.7-1 3.1-.5.3-.9 2.6-.9 5.1-.1 6.2-1.1 16-1.8 16.7-1 1-.7 2.5.4 1.8.5-.3 1 .3 1 1.4 0 1.2-.5 2.1-1 2.1-.6 0-.9 1.3-.8 3 .1 1.6.6 3 1 3s.8 1.6.8 3.5c0 3.5 1.7 8.5 3.4 9.7.6.4 1.1 3 1.2 5.8 0 2.8.6 5.6 1.3 6.3.6.6 1.1 1.7 1.1 2.5 0 1.2-.3 1.2-1.5.2-1.3-1.1-1.5-.8-1.5 1.6 0 1.6-.3 4-.5 5.4-.3 1.4-.3 1.9.1 1.2.3-.6 1.2-1.2 2-1.2 1.7 0 1.9 4.6.1 5.3-.9.4-.8.8.3 1.6 1.3 1 1.3 1.2 0 2.2-1.1.8-1.2 1.2-.2 1.6.7.3 1.2 2.5 1.2 5.9 0 4.1-.3 5.3-1.2 4.8-.7-.4-.1.6 1.4 2.2 2 2.2 2.5 3.6 2.1 5.7-.3 1.5-.9 3-1.3 3.2-1.4.9.8 6.7 3.7 9.7 1.4 1.5 2.3 3.1 1.9 3.5-.4.4-1.2 0-1.7-1-1.4-2.5-2.8-2.1-2.5.8.2 1.4-.3 3-1 3.6-.8.6-1.4 2.2-1.4 3.5 0 2.7 2.6 3.2 6.1 1.3 1.1-.5 3.5-1.1 5.3-1.3 1.8-.2 3.9-.6 4.6-1.1.7-.4 1.6-.2 2 .5.5.9.9.9 1.4.1.4-.6 1.8-1.1 3.1-1.1 1.9 0 2.3.4 1.8 1.7-.7 1.7-.6 1.7 1.8.1 2.1-1.3 10.4-2.6 19.9-3 .8 0 2.5-.9 3.7-2 2.6-2.4 4.8-1.6 3.3 1.3-.9 1.5-.7 1.9.5 1.9.8 0 1.5-.3 1.5-.8 0-.4 1.8-.7 4-.7s4 .3 4 .8c0 .4.9.3 1.9-.3 2.5-1.3 3.4-1.3 2.6 0-1.2 1.9 3.3 1 6.9-1.5 3.4-2.3 3.6-2.3 3.6-.5 0 2.5 1.5 2.5 4 0 1.1-1.1 3-2 4.1-2 1.9 0 2 .2.8 1.6-.7.9-2.2 2-3.4 2.5-1.6.7-1.4.8 1.2.6 1.7 0 3-.4 2.7-.8-.5-.8 1.4-2.3 4-3.3 1.3-.4 1.7-.2 1.3.8-.4 1.1 0 1.3 1.6 1 3.7-.8 9.1-.6 11.9.5 1.9.7 2.9.7 3.4-.1.4-.6.3-.8-.3-.5-.5.3-2.1-.4-3.6-1.6-2.2-1.9-2.4-2.4-1.2-3.5 1.2-1 1.6-.8 2.5.8 1 1.8 1.2 1.8 3 .3 1.4-1.2 1.6-2.1 1-3.3-.5-1-.6-2-.3-2.4.3-.3.1-.6-.5-.6-.7 0-1.2-.9-1.2-2s-.4-2-1-2c-1.3 0-1.2-37.1.1-42.9.8-3.5 1.6-64.3 1-75.9-.1-.8-2-1.2-5.8-1.2h-5.8l.1 8c0 7.1-.2 8-1.8 8-2.8 0-8-2.9-7.3-4.1.4-.5 1-.7 1.4-.5.4.3.8-2.4.9-5.9.1-3.6-.4-6.7-1-7.1-.6-.4-3.6-.8-6.7-1-3.1-.1-8.3-.5-11.6-.8-5.8-.4-6.1-.3-7.3 2.2-.8 1.7-.9 2.8-.2 3 1.6.6 1.1 4.4-.7 5.8-1 .7-2.6 1.4-3.5 1.4-1.5 0-1.8-.9-1.7-5.5.1-3.1.6-5.8 1-6.1.5-.3.9-.9.9-1.3 0-1.4-5.6-.3-9.2 1.7-2.6 1.5-3.8 1.7-5 .8-1.2-.9-6.1-1.3-10.1-.7-.4.1-.7 1.7-.5 3.7.2 2.6-.3 4-1.7 5-1 .8-1.5 1.4-1.1 1.4.4 0 .3.8-.2 1.7-.6.9-2.3 1.7-4.1 1.8-3.2.2-4-1.2-1.8-3.4 1-1.1.8-1.3-1.1-.8-2.3.5-2.3.5-.6-1.4 1.7-1.8 1.7-2-.1-3.3-1.7-1.2-1.7-1.5-.1-4.6 1.7-3.6 2.2-5.4.6-3-.8 1.2-1 1.2-1.6-.3-.6-1.7-3.5-2.3-4.8-1-.4.4-2.7 1.5-5.1 2.4-4 1.5-4.5 1.5-4.5.2 0-1-.6-1.4-2-1-1.3.3-2 0-2-.9 0-2.2-8.2-1.9-9.7.4zM296.2 240.8c-.5.9-.7 2.3-.4 3.1.2.7-.2 1.7-.9 2.2-1 .6-1.5 3.3-1.6 8.6-.4 11.1-.7 14.6-1.6 16-.5.8-.4 1.3.2 1.3.6 0 1.1.9 1.1 2s-.4 2-.9 2-.8 1.1-.7 2.5c0 1.4.3 2.5.6 2.5s.6 1.6.7 3.6c.1 2.1.9 4.1 1.9 4.8.9.7 1.4 1.8 1 2.4-.4.7 0 2.2.8 3.4 1 1.4 1.6 4.4 1.6 7.6 0 3.4.5 5.9 1.5 6.9.8.8 1.2 2 .8 2.6-.5.8-.8.8-1.1-.1-.9-2.7-2-.9-2 3.2 0 3.3.3 4.3 1.5 4.2 1-.1 1.7.8 1.8 2.1.1 1.4-.4 2.3-1.3 2.3-1.2 0-1.2.2-.1 1.7 1.1 1.3 1.1 1.7.2 2-.7.3-1.3.9-1.3 1.4 0 .6.5.7 1 .4 1.1-.7 1.2-.4 1.4 5.7.1 2.4-.2 4.6-.7 4.9-.5.4.1 1.6 1.3 2.7 2.1 1.9 2.2 2.5 1.2 6.4-1.4 5.6-.6 9.3 2.4 11.3 1.3.8 2.4 2.2 2.4 3 0 2.3-1.7 1.8-2.5-.8-.4-1.3-.8-1.7-1.2-.9-.2.6-.9 1-1.4.6-.5-.3-1 .2-1 1-.1.9-.2 2.2-.3 2.8-.3 1.8 2.5 9.1 3.8 10 .6.4 1.6.6 2.3.3.7-.2 1.5 0 1.8.6.4.5-.8 1.2-2.5 1.5-3.4.7-3.6 2.9-.3 2.9 1.2 0 2.4.3 2.8.7.4.3 2 .2 3.5-.4 1.6-.5 3.9-.8 5.2-.6l2.3.5-2.5 1.1c-1.4.6-1.9 1.1-1.1 1.1.8.1 2.2-.5 3-1.3 1.3-1.2 8.2-2.1 19.3-2.7.9 0 1.9-.7 2.2-1.5.3-.8 1.5-1.4 2.6-1.4 1.8 0 1.9.3 1 2-.8 1.6-.8 2 .4 2 .8 0 1.6-.5 1.8-1.1.2-.7 1.2-.7 3 0 1.9.7 2.8.7 3.2-.2.5-.9.7-.9 1.2 0 .4.9 1.1 1 2.5.3 1.3-.7 1.9-.7 1.9 0 0 1.7 4.6 1.1 7.3-1 2.6-2.1 5.3-2.7 4.2-1-1.4 2.2.8 3.1 2.9 1.2 1.1-1.1 3.2-2.3 4.6-2.6l2.5-.7-2.8 2.5c-2.6 2.4-2.6 2.6-.8 2.6 1.2 0 2.1-.4 2.1-1 0-.5 1.4-1.6 3-2.5 2.7-1.4 3-1.4 3 0 0 1.3.8 1.5 4.4 1 2.8-.5 4.6-.3 5 .4 1.6 2.5 2.5.9 1.1-1.9-1.5-2.9-1.5-3 .7-2.6 1.5.2 2.3 1 2.3 2.2 0 2.7 4.5 3 7.5.6 2.2-1.8 2.3-2.3 1.2-4.6-1.6-3.5-1.6-16.8 0-18.4.9-.9.9-1.2 0-1.2s-1.2-12.2-1.2-52v-52.1l-8.2.3c-7.3.3-8.3.5-8 2 .2 1-.2 1.9-.8 1.9-.5.1-1.4.3-2 .4-.5.1-1.9.3-3.1.4-1.3.1-2.4 1.2-3 3.1-1.8 5.2-2.9 3.3-2.9-5 0-7.3-.2-8-2-8-1.1 0-2-.5-2-1 0-.6-.7-1-1.6-1-.8 0-1.2.4-.9 1 .3.6-.5 1-1.9 1s-2.8-.5-3.1-1c-.3-.6-3.1-1-6.1-1H354l-.1 7.7c-.1 4.3-.1 8.2 0 8.7.3 1.4-1.9 2.4-4.1 1.8-1.1-.2-1.7-1-1.4-1.8.3-.8-.4-1.8-1.4-2.4-2-1.1-2.8-5-1-5 .6 0 1-2.4 1-5.4 0-5.4-1.3-7-4.8-5.9-1.9.7-.4 2.3 2.1 2.3 1.8 0 1.9.2.7 1-2 1.3-7 1.3-7 0 0-.6-3.2-1-7.5-1-4.6 0-7.5.4-7.5 1.1 0 .6-.9.4-2.1-.5-2.3-1.5-4-1.4-13.4.7-4.6 1-8.4 1.1-9.4.1-.2-.2.1-1 .8-1.8.9-1.1.8-1.5-.4-1.9-.8-.4-1.8.1-2.3 1.1zm29.8 9.7c-.7.8-1 2.1-.7 2.9.4 1.1.1 1.3-1 .9-1.2-.5-1.4-.3-.8.7.5.8.3 1.1-.5.8-1.8-.6-2.6-2.9-.8-2.6.9.2 1.3-.8 1.3-3.4-.1-2 .2-3.5.6-3.2.4.2 1.1-.1 1.6-.8.6-.9.9-.6 1.1 1 .2 1.3-.2 3-.8 3.7z"/><path d="M118 338.7c0 1.9 1.1 4.3 2.1 4.3 1.3 0 1.1-1.4-.6-3.6-.8-1-1.5-1.4-1.5-.7zM406.4 348.3c.3 1 .6 2.3.6 2.8s.5.9 1 .9c1.4 0 1.2-1.3-.6-3.6-1.4-1.7-1.5-1.7-1-.1zM126.5 369.5c.2 2.2.4 5 .4 6.2.1 1.3.5 2.3.9 2.3 1.2 0 .7-7-.6-10-1-2.3-1.1-2.1-.7 1.5zM79 387c-.9.6-1 1-.3 1 .6 0 1.5-.5 1.8-1 .8-1.2.4-1.2-1.5 0zM355.6 386.9c.9.9 3.4.9 3.4.1 0-.5-.9-.8-2-.7-1 .1-1.7.3-1.4.6z"/></svg>